<mxfile host="app.diagrams.net" modified="2023-08-14T07:50:05.804Z" agent="Mozilla/5.0 (Windows NT 10.0; Win64; x64) AppleWebKit/537.36 (KHTML, like Gecko) Chrome/115.0.0.0 Safari/537.36" etag="1B6KhrYCkaYMjy68pjAu" version="21.6.8" type="device" pages="3">
  <diagram id="C5RBs43oDa-KdzZeNtuy" name="Page-1">
    <mxGraphModel dx="880" dy="516" grid="1" gridSize="10" guides="1" tooltips="1" connect="1" arrows="1" fold="1" page="1" pageScale="1" pageWidth="827" pageHeight="1169" math="0" shadow="0">
      <root>
        <mxCell id="WIyWlLk6GJQsqaUBKTNV-0" />
        <mxCell id="WIyWlLk6GJQsqaUBKTNV-1" parent="WIyWlLk6GJQsqaUBKTNV-0" />
        <mxCell id="WIyWlLk6GJQsqaUBKTNV-2" value="" style="rounded=0;html=1;jettySize=auto;orthogonalLoop=1;fontSize=11;endArrow=block;endFill=0;endSize=8;strokeWidth=1;shadow=0;labelBackgroundColor=none;edgeStyle=orthogonalEdgeStyle;" parent="WIyWlLk6GJQsqaUBKTNV-1" edge="1">
          <mxGeometry relative="1" as="geometry">
            <mxPoint x="220" y="120" as="sourcePoint" />
            <mxPoint x="220" y="190" as="targetPoint" />
          </mxGeometry>
        </mxCell>
        <mxCell id="WIyWlLk6GJQsqaUBKTNV-8" value="No" style="rounded=0;html=1;jettySize=auto;orthogonalLoop=1;fontSize=11;endArrow=block;endFill=0;endSize=8;strokeWidth=1;shadow=0;labelBackgroundColor=none;edgeStyle=orthogonalEdgeStyle;entryX=0.5;entryY=0;entryDx=0;entryDy=0;" parent="WIyWlLk6GJQsqaUBKTNV-1" target="Ddi9aU7i1ZTaHQd4naAg-12" edge="1">
          <mxGeometry x="0.3333" y="20" relative="1" as="geometry">
            <mxPoint as="offset" />
            <mxPoint x="200.75" y="560" as="sourcePoint" />
            <mxPoint x="213.25" y="650" as="targetPoint" />
            <Array as="points">
              <mxPoint x="201" y="660" />
            </Array>
          </mxGeometry>
        </mxCell>
        <mxCell id="Ddi9aU7i1ZTaHQd4naAg-7" style="edgeStyle=orthogonalEdgeStyle;rounded=0;orthogonalLoop=1;jettySize=auto;html=1;" edge="1" parent="WIyWlLk6GJQsqaUBKTNV-1" source="WIyWlLk6GJQsqaUBKTNV-10">
          <mxGeometry relative="1" as="geometry">
            <mxPoint x="520" y="520" as="targetPoint" />
          </mxGeometry>
        </mxCell>
        <mxCell id="Ddi9aU7i1ZTaHQd4naAg-8" value="yes" style="edgeLabel;html=1;align=center;verticalAlign=middle;resizable=0;points=[];" vertex="1" connectable="0" parent="Ddi9aU7i1ZTaHQd4naAg-7">
          <mxGeometry x="0.0041" y="-3" relative="1" as="geometry">
            <mxPoint y="-1" as="offset" />
          </mxGeometry>
        </mxCell>
        <mxCell id="WIyWlLk6GJQsqaUBKTNV-10" value="option 1" style="rhombus;whiteSpace=wrap;html=1;shadow=0;fontFamily=Helvetica;fontSize=12;align=center;strokeWidth=1;spacing=6;spacingTop=-4;" parent="WIyWlLk6GJQsqaUBKTNV-1" vertex="1">
          <mxGeometry x="152.5" y="480" width="100" height="80" as="geometry" />
        </mxCell>
        <mxCell id="Ddi9aU7i1ZTaHQd4naAg-0" value="start" style="ellipse;whiteSpace=wrap;html=1;" vertex="1" parent="WIyWlLk6GJQsqaUBKTNV-1">
          <mxGeometry x="145" y="80" width="150" height="40" as="geometry" />
        </mxCell>
        <mxCell id="Ddi9aU7i1ZTaHQd4naAg-5" style="edgeStyle=orthogonalEdgeStyle;rounded=0;orthogonalLoop=1;jettySize=auto;html=1;entryX=0.5;entryY=0;entryDx=0;entryDy=0;" edge="1" parent="WIyWlLk6GJQsqaUBKTNV-1" source="Ddi9aU7i1ZTaHQd4naAg-1" target="Ddi9aU7i1ZTaHQd4naAg-4">
          <mxGeometry relative="1" as="geometry" />
        </mxCell>
        <mxCell id="Ddi9aU7i1ZTaHQd4naAg-1" value="1.request loan&lt;br&gt;2.repay loan&lt;br&gt;3.view loan details&lt;br&gt;4.renew loan&lt;br&gt;5.buy second hand goods" style="shape=parallelogram;perimeter=parallelogramPerimeter;whiteSpace=wrap;html=1;fixedSize=1;" vertex="1" parent="WIyWlLk6GJQsqaUBKTNV-1">
          <mxGeometry x="120" y="200" width="175" height="130" as="geometry" />
        </mxCell>
        <mxCell id="Ddi9aU7i1ZTaHQd4naAg-2" value="request loan moduke" style="shape=process;whiteSpace=wrap;html=1;backgroundOutline=1;" vertex="1" parent="WIyWlLk6GJQsqaUBKTNV-1">
          <mxGeometry x="530" y="500" width="120" height="40" as="geometry" />
        </mxCell>
        <mxCell id="Ddi9aU7i1ZTaHQd4naAg-6" style="edgeStyle=orthogonalEdgeStyle;rounded=0;orthogonalLoop=1;jettySize=auto;html=1;entryX=0.5;entryY=0;entryDx=0;entryDy=0;" edge="1" parent="WIyWlLk6GJQsqaUBKTNV-1" source="Ddi9aU7i1ZTaHQd4naAg-4" target="WIyWlLk6GJQsqaUBKTNV-10">
          <mxGeometry relative="1" as="geometry" />
        </mxCell>
        <mxCell id="Ddi9aU7i1ZTaHQd4naAg-4" value="select option" style="rounded=0;whiteSpace=wrap;html=1;" vertex="1" parent="WIyWlLk6GJQsqaUBKTNV-1">
          <mxGeometry x="152.5" y="370" width="110" height="20" as="geometry" />
        </mxCell>
        <mxCell id="Ddi9aU7i1ZTaHQd4naAg-9" value="No" style="rounded=0;html=1;jettySize=auto;orthogonalLoop=1;fontSize=11;endArrow=block;endFill=0;endSize=8;strokeWidth=1;shadow=0;labelBackgroundColor=none;edgeStyle=orthogonalEdgeStyle;" edge="1" parent="WIyWlLk6GJQsqaUBKTNV-1" source="Ddi9aU7i1ZTaHQd4naAg-12">
          <mxGeometry x="0.3333" y="20" relative="1" as="geometry">
            <mxPoint as="offset" />
            <mxPoint x="202.5" y="820" as="targetPoint" />
            <Array as="points">
              <mxPoint x="208" y="800" />
              <mxPoint x="203" y="800" />
            </Array>
          </mxGeometry>
        </mxCell>
        <mxCell id="Ddi9aU7i1ZTaHQd4naAg-10" style="edgeStyle=orthogonalEdgeStyle;rounded=0;orthogonalLoop=1;jettySize=auto;html=1;" edge="1" parent="WIyWlLk6GJQsqaUBKTNV-1" source="Ddi9aU7i1ZTaHQd4naAg-12">
          <mxGeometry relative="1" as="geometry">
            <mxPoint x="520" y="700" as="targetPoint" />
          </mxGeometry>
        </mxCell>
        <mxCell id="Ddi9aU7i1ZTaHQd4naAg-11" value="yes" style="edgeLabel;html=1;align=center;verticalAlign=middle;resizable=0;points=[];" vertex="1" connectable="0" parent="Ddi9aU7i1ZTaHQd4naAg-10">
          <mxGeometry x="0.0041" y="-3" relative="1" as="geometry">
            <mxPoint y="-1" as="offset" />
          </mxGeometry>
        </mxCell>
        <mxCell id="Ddi9aU7i1ZTaHQd4naAg-12" value="option 2" style="rhombus;whiteSpace=wrap;html=1;shadow=0;fontFamily=Helvetica;fontSize=12;align=center;strokeWidth=1;spacing=6;spacingTop=-4;" vertex="1" parent="WIyWlLk6GJQsqaUBKTNV-1">
          <mxGeometry x="152.5" y="670" width="100" height="80" as="geometry" />
        </mxCell>
        <mxCell id="Ddi9aU7i1ZTaHQd4naAg-13" value="repay loan module" style="shape=process;whiteSpace=wrap;html=1;backgroundOutline=1;" vertex="1" parent="WIyWlLk6GJQsqaUBKTNV-1">
          <mxGeometry x="530" y="680" width="120" height="40" as="geometry" />
        </mxCell>
        <mxCell id="Ddi9aU7i1ZTaHQd4naAg-15" value="No" style="rounded=0;html=1;jettySize=auto;orthogonalLoop=1;fontSize=11;endArrow=block;endFill=0;endSize=8;strokeWidth=1;shadow=0;labelBackgroundColor=none;edgeStyle=orthogonalEdgeStyle;entryX=0.5;entryY=0;entryDx=0;entryDy=0;" edge="1" parent="WIyWlLk6GJQsqaUBKTNV-1">
          <mxGeometry x="0.3333" y="20" relative="1" as="geometry">
            <mxPoint as="offset" />
            <mxPoint x="200.75" y="910" as="sourcePoint" />
            <mxPoint x="203" y="1020" as="targetPoint" />
            <Array as="points">
              <mxPoint x="201" y="1010" />
            </Array>
          </mxGeometry>
        </mxCell>
        <mxCell id="Ddi9aU7i1ZTaHQd4naAg-16" style="edgeStyle=orthogonalEdgeStyle;rounded=0;orthogonalLoop=1;jettySize=auto;html=1;" edge="1" parent="WIyWlLk6GJQsqaUBKTNV-1" source="Ddi9aU7i1ZTaHQd4naAg-18">
          <mxGeometry relative="1" as="geometry">
            <mxPoint x="520" y="870" as="targetPoint" />
          </mxGeometry>
        </mxCell>
        <mxCell id="Ddi9aU7i1ZTaHQd4naAg-17" value="yes" style="edgeLabel;html=1;align=center;verticalAlign=middle;resizable=0;points=[];" vertex="1" connectable="0" parent="Ddi9aU7i1ZTaHQd4naAg-16">
          <mxGeometry x="0.0041" y="-3" relative="1" as="geometry">
            <mxPoint y="-1" as="offset" />
          </mxGeometry>
        </mxCell>
        <mxCell id="Ddi9aU7i1ZTaHQd4naAg-18" value="option 3" style="rhombus;whiteSpace=wrap;html=1;shadow=0;fontFamily=Helvetica;fontSize=12;align=center;strokeWidth=1;spacing=6;spacingTop=-4;" vertex="1" parent="WIyWlLk6GJQsqaUBKTNV-1">
          <mxGeometry x="152.5" y="830" width="100" height="80" as="geometry" />
        </mxCell>
        <mxCell id="Ddi9aU7i1ZTaHQd4naAg-19" value="view loan module" style="shape=process;whiteSpace=wrap;html=1;backgroundOutline=1;" vertex="1" parent="WIyWlLk6GJQsqaUBKTNV-1">
          <mxGeometry x="530" y="850" width="120" height="40" as="geometry" />
        </mxCell>
        <mxCell id="Ddi9aU7i1ZTaHQd4naAg-21" style="edgeStyle=orthogonalEdgeStyle;rounded=0;orthogonalLoop=1;jettySize=auto;html=1;" edge="1" parent="WIyWlLk6GJQsqaUBKTNV-1" source="Ddi9aU7i1ZTaHQd4naAg-23">
          <mxGeometry relative="1" as="geometry">
            <mxPoint x="520" y="1060" as="targetPoint" />
          </mxGeometry>
        </mxCell>
        <mxCell id="Ddi9aU7i1ZTaHQd4naAg-22" value="yes" style="edgeLabel;html=1;align=center;verticalAlign=middle;resizable=0;points=[];" vertex="1" connectable="0" parent="Ddi9aU7i1ZTaHQd4naAg-21">
          <mxGeometry x="0.0041" y="-3" relative="1" as="geometry">
            <mxPoint y="-1" as="offset" />
          </mxGeometry>
        </mxCell>
        <mxCell id="Ddi9aU7i1ZTaHQd4naAg-26" style="edgeStyle=orthogonalEdgeStyle;rounded=0;orthogonalLoop=1;jettySize=auto;html=1;" edge="1" parent="WIyWlLk6GJQsqaUBKTNV-1" source="Ddi9aU7i1ZTaHQd4naAg-23">
          <mxGeometry relative="1" as="geometry">
            <mxPoint x="40" y="280" as="targetPoint" />
          </mxGeometry>
        </mxCell>
        <mxCell id="Ddi9aU7i1ZTaHQd4naAg-23" value="option 4" style="rhombus;whiteSpace=wrap;html=1;shadow=0;fontFamily=Helvetica;fontSize=12;align=center;strokeWidth=1;spacing=6;spacingTop=-4;" vertex="1" parent="WIyWlLk6GJQsqaUBKTNV-1">
          <mxGeometry x="152.5" y="1020" width="100" height="80" as="geometry" />
        </mxCell>
        <mxCell id="Ddi9aU7i1ZTaHQd4naAg-24" value="renew loan module" style="shape=process;whiteSpace=wrap;html=1;backgroundOutline=1;" vertex="1" parent="WIyWlLk6GJQsqaUBKTNV-1">
          <mxGeometry x="530" y="1040" width="120" height="40" as="geometry" />
        </mxCell>
        <mxCell id="Ddi9aU7i1ZTaHQd4naAg-27" value="" style="endArrow=classic;html=1;rounded=0;entryX=0.029;entryY=0.623;entryDx=0;entryDy=0;entryPerimeter=0;" edge="1" parent="WIyWlLk6GJQsqaUBKTNV-1" target="Ddi9aU7i1ZTaHQd4naAg-1">
          <mxGeometry width="50" height="50" relative="1" as="geometry">
            <mxPoint x="40" y="281" as="sourcePoint" />
            <mxPoint x="90" y="270" as="targetPoint" />
          </mxGeometry>
        </mxCell>
      </root>
    </mxGraphModel>
  </diagram>
  <diagram name="request loan module" id="0cD7K6Nw77-6HucohRlJ">
    <mxGraphModel dx="880" dy="516" grid="1" gridSize="10" guides="1" tooltips="1" connect="1" arrows="1" fold="1" page="1" pageScale="1" pageWidth="827" pageHeight="1169" math="0" shadow="0">
      <root>
        <mxCell id="IUrqk35JewsO-2yjbu00-0" />
        <mxCell id="IUrqk35JewsO-2yjbu00-1" parent="IUrqk35JewsO-2yjbu00-0" />
        <mxCell id="IUrqk35JewsO-2yjbu00-2" value="" style="rounded=0;html=1;jettySize=auto;orthogonalLoop=1;fontSize=11;endArrow=block;endFill=0;endSize=8;strokeWidth=1;shadow=0;labelBackgroundColor=none;edgeStyle=orthogonalEdgeStyle;" edge="1" parent="IUrqk35JewsO-2yjbu00-1">
          <mxGeometry relative="1" as="geometry">
            <mxPoint x="224.5" y="60" as="sourcePoint" />
            <mxPoint x="224.5" y="130" as="targetPoint" />
          </mxGeometry>
        </mxCell>
        <mxCell id="IUrqk35JewsO-2yjbu00-7" value="start" style="ellipse;whiteSpace=wrap;html=1;" vertex="1" parent="IUrqk35JewsO-2yjbu00-1">
          <mxGeometry x="150" y="10" width="150" height="40" as="geometry" />
        </mxCell>
        <mxCell id="zmvi9S1KqVQOk64T9Is_-0" value="submit collateral" style="rounded=0;whiteSpace=wrap;html=1;" vertex="1" parent="IUrqk35JewsO-2yjbu00-1">
          <mxGeometry x="145" y="130" width="160" height="50" as="geometry" />
        </mxCell>
        <mxCell id="zmvi9S1KqVQOk64T9Is_-1" value="calculate loan limit" style="rounded=0;whiteSpace=wrap;html=1;" vertex="1" parent="IUrqk35JewsO-2yjbu00-1">
          <mxGeometry x="140" y="230" width="160" height="50" as="geometry" />
        </mxCell>
        <mxCell id="zmvi9S1KqVQOk64T9Is_-2" value="enter amount you wish to request" style="rounded=0;whiteSpace=wrap;html=1;" vertex="1" parent="IUrqk35JewsO-2yjbu00-1">
          <mxGeometry x="140" y="460" width="160" height="50" as="geometry" />
        </mxCell>
        <mxCell id="zmvi9S1KqVQOk64T9Is_-3" value="display loan limit" style="shape=parallelogram;perimeter=parallelogramPerimeter;whiteSpace=wrap;html=1;fixedSize=1;" vertex="1" parent="IUrqk35JewsO-2yjbu00-1">
          <mxGeometry x="145" y="320" width="140" height="90" as="geometry" />
        </mxCell>
        <mxCell id="zmvi9S1KqVQOk64T9Is_-4" value="calculate repayment&amp;nbsp;" style="rounded=0;whiteSpace=wrap;html=1;" vertex="1" parent="IUrqk35JewsO-2yjbu00-1">
          <mxGeometry x="145" y="565" width="150" height="40" as="geometry" />
        </mxCell>
        <mxCell id="zmvi9S1KqVQOk64T9Is_-5" value="display loan amount terms and conditions, repayment period and interest.&lt;br&gt;do ypu wish to proceed" style="shape=parallelogram;perimeter=parallelogramPerimeter;whiteSpace=wrap;html=1;fixedSize=1;" vertex="1" parent="IUrqk35JewsO-2yjbu00-1">
          <mxGeometry x="130" y="660" width="165" height="90" as="geometry" />
        </mxCell>
        <mxCell id="zmvi9S1KqVQOk64T9Is_-6" value="" style="rhombus;whiteSpace=wrap;html=1;" vertex="1" parent="IUrqk35JewsO-2yjbu00-1">
          <mxGeometry x="185" y="800" width="80" height="80" as="geometry" />
        </mxCell>
        <mxCell id="zmvi9S1KqVQOk64T9Is_-7" value="enter collateral collection point" style="rounded=0;whiteSpace=wrap;html=1;" vertex="1" parent="IUrqk35JewsO-2yjbu00-1">
          <mxGeometry x="150" y="940" width="150" height="40" as="geometry" />
        </mxCell>
        <mxCell id="zmvi9S1KqVQOk64T9Is_-8" value="agents to asses the collaterals state&amp;nbsp;" style="rounded=0;whiteSpace=wrap;html=1;" vertex="1" parent="IUrqk35JewsO-2yjbu00-1">
          <mxGeometry x="155" y="1030" width="150" height="40" as="geometry" />
        </mxCell>
        <mxCell id="zmvi9S1KqVQOk64T9Is_-9" value="state of collateral" style="rhombus;whiteSpace=wrap;html=1;" vertex="1" parent="IUrqk35JewsO-2yjbu00-1">
          <mxGeometry x="185" y="1130" width="80" height="80" as="geometry" />
        </mxCell>
        <mxCell id="zmvi9S1KqVQOk64T9Is_-11" value="could not process the loan submit other collateral item" style="shape=parallelogram;perimeter=parallelogramPerimeter;whiteSpace=wrap;html=1;fixedSize=1;" vertex="1" parent="IUrqk35JewsO-2yjbu00-1">
          <mxGeometry x="430" y="1140" width="176" height="60" as="geometry" />
        </mxCell>
        <mxCell id="o5fzywgjHPseERvu56Fx-2" style="edgeStyle=orthogonalEdgeStyle;rounded=0;orthogonalLoop=1;jettySize=auto;html=1;entryX=0.5;entryY=0;entryDx=0;entryDy=0;" edge="1" parent="IUrqk35JewsO-2yjbu00-1" source="zmvi9S1KqVQOk64T9Is_-12" target="o5fzywgjHPseERvu56Fx-1">
          <mxGeometry relative="1" as="geometry" />
        </mxCell>
        <mxCell id="zmvi9S1KqVQOk64T9Is_-12" value="make payments to account" style="rounded=0;whiteSpace=wrap;html=1;" vertex="1" parent="IUrqk35JewsO-2yjbu00-1">
          <mxGeometry x="165" y="1270" width="120" height="60" as="geometry" />
        </mxCell>
        <mxCell id="zmvi9S1KqVQOk64T9Is_-14" value="" style="rounded=0;html=1;jettySize=auto;orthogonalLoop=1;fontSize=11;endArrow=block;endFill=0;endSize=8;strokeWidth=1;shadow=0;labelBackgroundColor=none;edgeStyle=orthogonalEdgeStyle;" edge="1" parent="IUrqk35JewsO-2yjbu00-1">
          <mxGeometry relative="1" as="geometry">
            <mxPoint x="224.5" y="180" as="sourcePoint" />
            <mxPoint x="224.5" y="230" as="targetPoint" />
            <Array as="points">
              <mxPoint x="225" y="200" />
              <mxPoint x="225" y="200" />
            </Array>
          </mxGeometry>
        </mxCell>
        <mxCell id="zmvi9S1KqVQOk64T9Is_-15" value="" style="rounded=0;html=1;jettySize=auto;orthogonalLoop=1;fontSize=11;endArrow=block;endFill=0;endSize=8;strokeWidth=1;shadow=0;labelBackgroundColor=none;edgeStyle=orthogonalEdgeStyle;" edge="1" parent="IUrqk35JewsO-2yjbu00-1">
          <mxGeometry relative="1" as="geometry">
            <mxPoint x="224.5" y="410" as="sourcePoint" />
            <mxPoint x="224.5" y="460" as="targetPoint" />
            <Array as="points">
              <mxPoint x="225" y="430" />
              <mxPoint x="225" y="430" />
            </Array>
          </mxGeometry>
        </mxCell>
        <mxCell id="zmvi9S1KqVQOk64T9Is_-16" value="" style="rounded=0;html=1;jettySize=auto;orthogonalLoop=1;fontSize=11;endArrow=block;endFill=0;endSize=8;strokeWidth=1;shadow=0;labelBackgroundColor=none;edgeStyle=orthogonalEdgeStyle;" edge="1" parent="IUrqk35JewsO-2yjbu00-1">
          <mxGeometry relative="1" as="geometry">
            <mxPoint x="224.5" y="280" as="sourcePoint" />
            <mxPoint x="224.5" y="320" as="targetPoint" />
            <Array as="points">
              <mxPoint x="225" y="290" />
              <mxPoint x="225" y="290" />
            </Array>
          </mxGeometry>
        </mxCell>
        <mxCell id="zmvi9S1KqVQOk64T9Is_-17" value="" style="rounded=0;html=1;jettySize=auto;orthogonalLoop=1;fontSize=11;endArrow=block;endFill=0;endSize=8;strokeWidth=1;shadow=0;labelBackgroundColor=none;edgeStyle=orthogonalEdgeStyle;" edge="1" parent="IUrqk35JewsO-2yjbu00-1">
          <mxGeometry relative="1" as="geometry">
            <mxPoint x="224.5" y="510" as="sourcePoint" />
            <mxPoint x="224.5" y="560" as="targetPoint" />
            <Array as="points">
              <mxPoint x="225" y="530" />
              <mxPoint x="225" y="530" />
            </Array>
          </mxGeometry>
        </mxCell>
        <mxCell id="zmvi9S1KqVQOk64T9Is_-18" value="" style="rounded=0;html=1;jettySize=auto;orthogonalLoop=1;fontSize=11;endArrow=block;endFill=0;endSize=8;strokeWidth=1;shadow=0;labelBackgroundColor=none;edgeStyle=orthogonalEdgeStyle;" edge="1" parent="IUrqk35JewsO-2yjbu00-1">
          <mxGeometry relative="1" as="geometry">
            <mxPoint x="224.5" y="605" as="sourcePoint" />
            <mxPoint x="224.5" y="655" as="targetPoint" />
            <Array as="points">
              <mxPoint x="225" y="625" />
              <mxPoint x="225" y="625" />
            </Array>
          </mxGeometry>
        </mxCell>
        <mxCell id="zmvi9S1KqVQOk64T9Is_-19" value="" style="rounded=0;html=1;jettySize=auto;orthogonalLoop=1;fontSize=11;endArrow=block;endFill=0;endSize=8;strokeWidth=1;shadow=0;labelBackgroundColor=none;edgeStyle=orthogonalEdgeStyle;" edge="1" parent="IUrqk35JewsO-2yjbu00-1">
          <mxGeometry relative="1" as="geometry">
            <mxPoint x="224.5" y="750" as="sourcePoint" />
            <mxPoint x="224.5" y="800" as="targetPoint" />
            <Array as="points">
              <mxPoint x="225" y="770" />
              <mxPoint x="225" y="770" />
            </Array>
          </mxGeometry>
        </mxCell>
        <mxCell id="zmvi9S1KqVQOk64T9Is_-20" value="" style="rounded=0;html=1;jettySize=auto;orthogonalLoop=1;fontSize=11;endArrow=block;endFill=0;endSize=8;strokeWidth=1;shadow=0;labelBackgroundColor=none;edgeStyle=orthogonalEdgeStyle;" edge="1" parent="IUrqk35JewsO-2yjbu00-1">
          <mxGeometry relative="1" as="geometry">
            <mxPoint x="224.5" y="880" as="sourcePoint" />
            <mxPoint x="224.5" y="930" as="targetPoint" />
            <Array as="points">
              <mxPoint x="225" y="900" />
              <mxPoint x="225" y="900" />
            </Array>
          </mxGeometry>
        </mxCell>
        <mxCell id="zmvi9S1KqVQOk64T9Is_-21" value="yes" style="edgeLabel;html=1;align=center;verticalAlign=middle;resizable=0;points=[];" vertex="1" connectable="0" parent="zmvi9S1KqVQOk64T9Is_-20">
          <mxGeometry x="-0.24" y="2" relative="1" as="geometry">
            <mxPoint as="offset" />
          </mxGeometry>
        </mxCell>
        <mxCell id="zmvi9S1KqVQOk64T9Is_-22" value="" style="rounded=0;html=1;jettySize=auto;orthogonalLoop=1;fontSize=11;endArrow=block;endFill=0;endSize=8;strokeWidth=1;shadow=0;labelBackgroundColor=none;edgeStyle=orthogonalEdgeStyle;" edge="1" parent="IUrqk35JewsO-2yjbu00-1">
          <mxGeometry relative="1" as="geometry">
            <mxPoint x="224.5" y="980" as="sourcePoint" />
            <mxPoint x="224.5" y="1030" as="targetPoint" />
            <Array as="points">
              <mxPoint x="225" y="1000" />
              <mxPoint x="225" y="1000" />
            </Array>
          </mxGeometry>
        </mxCell>
        <mxCell id="zmvi9S1KqVQOk64T9Is_-23" value="" style="rounded=0;html=1;jettySize=auto;orthogonalLoop=1;fontSize=11;endArrow=block;endFill=0;endSize=8;strokeWidth=1;shadow=0;labelBackgroundColor=none;edgeStyle=orthogonalEdgeStyle;" edge="1" parent="IUrqk35JewsO-2yjbu00-1">
          <mxGeometry relative="1" as="geometry">
            <mxPoint x="224.5" y="1070" as="sourcePoint" />
            <mxPoint x="224.5" y="1120" as="targetPoint" />
            <Array as="points">
              <mxPoint x="225" y="1090" />
              <mxPoint x="225" y="1090" />
            </Array>
          </mxGeometry>
        </mxCell>
        <mxCell id="zmvi9S1KqVQOk64T9Is_-24" value="" style="rounded=0;html=1;jettySize=auto;orthogonalLoop=1;fontSize=11;endArrow=block;endFill=0;endSize=8;strokeWidth=1;shadow=0;labelBackgroundColor=none;edgeStyle=orthogonalEdgeStyle;" edge="1" parent="IUrqk35JewsO-2yjbu00-1">
          <mxGeometry relative="1" as="geometry">
            <mxPoint x="224.5" y="1210" as="sourcePoint" />
            <mxPoint x="224.5" y="1260" as="targetPoint" />
            <Array as="points">
              <mxPoint x="225" y="1230" />
              <mxPoint x="225" y="1230" />
            </Array>
          </mxGeometry>
        </mxCell>
        <mxCell id="zmvi9S1KqVQOk64T9Is_-25" value="" style="endArrow=classic;html=1;rounded=0;" edge="1" parent="IUrqk35JewsO-2yjbu00-1" source="zmvi9S1KqVQOk64T9Is_-9">
          <mxGeometry width="50" height="50" relative="1" as="geometry">
            <mxPoint x="265" y="1220" as="sourcePoint" />
            <mxPoint x="430" y="1170" as="targetPoint" />
          </mxGeometry>
        </mxCell>
        <mxCell id="zmvi9S1KqVQOk64T9Is_-26" value="" style="endArrow=none;html=1;rounded=0;" edge="1" parent="IUrqk35JewsO-2yjbu00-1">
          <mxGeometry width="50" height="50" relative="1" as="geometry">
            <mxPoint x="520" y="1140" as="sourcePoint" />
            <mxPoint x="520" y="160" as="targetPoint" />
          </mxGeometry>
        </mxCell>
        <mxCell id="zmvi9S1KqVQOk64T9Is_-27" value="" style="endArrow=classic;html=1;rounded=0;" edge="1" parent="IUrqk35JewsO-2yjbu00-1">
          <mxGeometry width="50" height="50" relative="1" as="geometry">
            <mxPoint x="520" y="160" as="sourcePoint" />
            <mxPoint x="310" y="160" as="targetPoint" />
          </mxGeometry>
        </mxCell>
        <mxCell id="o5fzywgjHPseERvu56Fx-1" value="stop" style="ellipse;whiteSpace=wrap;html=1;" vertex="1" parent="IUrqk35JewsO-2yjbu00-1">
          <mxGeometry x="165" y="1460" width="120" height="60" as="geometry" />
        </mxCell>
        <mxCell id="o5fzywgjHPseERvu56Fx-3" value="" style="endArrow=none;html=1;rounded=0;" edge="1" parent="IUrqk35JewsO-2yjbu00-1">
          <mxGeometry width="50" height="50" relative="1" as="geometry">
            <mxPoint x="80" y="840" as="sourcePoint" />
            <mxPoint x="180" y="840" as="targetPoint" />
          </mxGeometry>
        </mxCell>
        <mxCell id="o5fzywgjHPseERvu56Fx-4" value="" style="endArrow=none;html=1;rounded=0;" edge="1" parent="IUrqk35JewsO-2yjbu00-1">
          <mxGeometry width="50" height="50" relative="1" as="geometry">
            <mxPoint x="80" y="1498" as="sourcePoint" />
            <mxPoint x="80" y="840" as="targetPoint" />
          </mxGeometry>
        </mxCell>
        <mxCell id="o5fzywgjHPseERvu56Fx-6" value="no" style="edgeLabel;html=1;align=center;verticalAlign=middle;resizable=0;points=[];" vertex="1" connectable="0" parent="o5fzywgjHPseERvu56Fx-4">
          <mxGeometry x="0.7325" y="2" relative="1" as="geometry">
            <mxPoint as="offset" />
          </mxGeometry>
        </mxCell>
        <mxCell id="o5fzywgjHPseERvu56Fx-5" value="" style="endArrow=classic;html=1;rounded=0;" edge="1" parent="IUrqk35JewsO-2yjbu00-1">
          <mxGeometry width="50" height="50" relative="1" as="geometry">
            <mxPoint x="80" y="1500" as="sourcePoint" />
            <mxPoint x="160" y="1500" as="targetPoint" />
          </mxGeometry>
        </mxCell>
      </root>
    </mxGraphModel>
  </diagram>
  <diagram name="repay loan module" id="qbXvVVwuTHm3zwm20GS4">
    <mxGraphModel dx="880" dy="516" grid="1" gridSize="10" guides="1" tooltips="1" connect="1" arrows="1" fold="1" page="1" pageScale="1" pageWidth="827" pageHeight="1169" math="0" shadow="0">
      <root>
        <mxCell id="yUZSU2Zt3Uoy4D3P4V2n-0" />
        <mxCell id="yUZSU2Zt3Uoy4D3P4V2n-1" parent="yUZSU2Zt3Uoy4D3P4V2n-0" />
        <mxCell id="yUZSU2Zt3Uoy4D3P4V2n-2" value="" style="rounded=0;html=1;jettySize=auto;orthogonalLoop=1;fontSize=11;endArrow=block;endFill=0;endSize=8;strokeWidth=1;shadow=0;labelBackgroundColor=none;edgeStyle=orthogonalEdgeStyle;" edge="1" parent="yUZSU2Zt3Uoy4D3P4V2n-1">
          <mxGeometry relative="1" as="geometry">
            <mxPoint x="224.5" y="60" as="sourcePoint" />
            <mxPoint x="224.5" y="130" as="targetPoint" />
          </mxGeometry>
        </mxCell>
        <mxCell id="yUZSU2Zt3Uoy4D3P4V2n-3" value="start" style="ellipse;whiteSpace=wrap;html=1;" vertex="1" parent="yUZSU2Zt3Uoy4D3P4V2n-1">
          <mxGeometry x="150" y="10" width="150" height="40" as="geometry" />
        </mxCell>
        <mxCell id="yUZSU2Zt3Uoy4D3P4V2n-4" value="submit collateral" style="rounded=0;whiteSpace=wrap;html=1;" vertex="1" parent="yUZSU2Zt3Uoy4D3P4V2n-1">
          <mxGeometry x="145" y="130" width="160" height="50" as="geometry" />
        </mxCell>
        <mxCell id="yUZSU2Zt3Uoy4D3P4V2n-5" value="calculate loan limit" style="rounded=0;whiteSpace=wrap;html=1;" vertex="1" parent="yUZSU2Zt3Uoy4D3P4V2n-1">
          <mxGeometry x="140" y="230" width="160" height="50" as="geometry" />
        </mxCell>
        <mxCell id="yUZSU2Zt3Uoy4D3P4V2n-6" value="enter amount you wish to request" style="rounded=0;whiteSpace=wrap;html=1;" vertex="1" parent="yUZSU2Zt3Uoy4D3P4V2n-1">
          <mxGeometry x="140" y="460" width="160" height="50" as="geometry" />
        </mxCell>
        <mxCell id="yUZSU2Zt3Uoy4D3P4V2n-7" value="display loan limit" style="shape=parallelogram;perimeter=parallelogramPerimeter;whiteSpace=wrap;html=1;fixedSize=1;" vertex="1" parent="yUZSU2Zt3Uoy4D3P4V2n-1">
          <mxGeometry x="145" y="320" width="140" height="90" as="geometry" />
        </mxCell>
        <mxCell id="yUZSU2Zt3Uoy4D3P4V2n-8" value="calculate repayment&amp;nbsp;" style="rounded=0;whiteSpace=wrap;html=1;" vertex="1" parent="yUZSU2Zt3Uoy4D3P4V2n-1">
          <mxGeometry x="145" y="565" width="150" height="40" as="geometry" />
        </mxCell>
        <mxCell id="yUZSU2Zt3Uoy4D3P4V2n-9" value="display loan amount terms and conditions, repayment period and interest.&lt;br&gt;do ypu wish to proceed" style="shape=parallelogram;perimeter=parallelogramPerimeter;whiteSpace=wrap;html=1;fixedSize=1;" vertex="1" parent="yUZSU2Zt3Uoy4D3P4V2n-1">
          <mxGeometry x="130" y="660" width="165" height="90" as="geometry" />
        </mxCell>
        <mxCell id="yUZSU2Zt3Uoy4D3P4V2n-10" value="" style="rhombus;whiteSpace=wrap;html=1;" vertex="1" parent="yUZSU2Zt3Uoy4D3P4V2n-1">
          <mxGeometry x="185" y="800" width="80" height="80" as="geometry" />
        </mxCell>
        <mxCell id="yUZSU2Zt3Uoy4D3P4V2n-11" value="enter collateral collection point" style="rounded=0;whiteSpace=wrap;html=1;" vertex="1" parent="yUZSU2Zt3Uoy4D3P4V2n-1">
          <mxGeometry x="150" y="940" width="150" height="40" as="geometry" />
        </mxCell>
        <mxCell id="yUZSU2Zt3Uoy4D3P4V2n-12" value="agents to asses the collaterals state&amp;nbsp;" style="rounded=0;whiteSpace=wrap;html=1;" vertex="1" parent="yUZSU2Zt3Uoy4D3P4V2n-1">
          <mxGeometry x="155" y="1030" width="150" height="40" as="geometry" />
        </mxCell>
        <mxCell id="yUZSU2Zt3Uoy4D3P4V2n-13" value="state of collateral" style="rhombus;whiteSpace=wrap;html=1;" vertex="1" parent="yUZSU2Zt3Uoy4D3P4V2n-1">
          <mxGeometry x="185" y="1130" width="80" height="80" as="geometry" />
        </mxCell>
        <mxCell id="yUZSU2Zt3Uoy4D3P4V2n-14" value="could not process the loan submit other collateral item" style="shape=parallelogram;perimeter=parallelogramPerimeter;whiteSpace=wrap;html=1;fixedSize=1;" vertex="1" parent="yUZSU2Zt3Uoy4D3P4V2n-1">
          <mxGeometry x="430" y="1140" width="176" height="60" as="geometry" />
        </mxCell>
        <mxCell id="yUZSU2Zt3Uoy4D3P4V2n-15" style="edgeStyle=orthogonalEdgeStyle;rounded=0;orthogonalLoop=1;jettySize=auto;html=1;entryX=0.5;entryY=0;entryDx=0;entryDy=0;" edge="1" parent="yUZSU2Zt3Uoy4D3P4V2n-1" source="yUZSU2Zt3Uoy4D3P4V2n-16" target="yUZSU2Zt3Uoy4D3P4V2n-31">
          <mxGeometry relative="1" as="geometry" />
        </mxCell>
        <mxCell id="yUZSU2Zt3Uoy4D3P4V2n-16" value="make payments to account" style="rounded=0;whiteSpace=wrap;html=1;" vertex="1" parent="yUZSU2Zt3Uoy4D3P4V2n-1">
          <mxGeometry x="165" y="1270" width="120" height="60" as="geometry" />
        </mxCell>
        <mxCell id="yUZSU2Zt3Uoy4D3P4V2n-17" value="" style="rounded=0;html=1;jettySize=auto;orthogonalLoop=1;fontSize=11;endArrow=block;endFill=0;endSize=8;strokeWidth=1;shadow=0;labelBackgroundColor=none;edgeStyle=orthogonalEdgeStyle;" edge="1" parent="yUZSU2Zt3Uoy4D3P4V2n-1">
          <mxGeometry relative="1" as="geometry">
            <mxPoint x="224.5" y="180" as="sourcePoint" />
            <mxPoint x="224.5" y="230" as="targetPoint" />
            <Array as="points">
              <mxPoint x="225" y="200" />
              <mxPoint x="225" y="200" />
            </Array>
          </mxGeometry>
        </mxCell>
        <mxCell id="yUZSU2Zt3Uoy4D3P4V2n-18" value="" style="rounded=0;html=1;jettySize=auto;orthogonalLoop=1;fontSize=11;endArrow=block;endFill=0;endSize=8;strokeWidth=1;shadow=0;labelBackgroundColor=none;edgeStyle=orthogonalEdgeStyle;" edge="1" parent="yUZSU2Zt3Uoy4D3P4V2n-1">
          <mxGeometry relative="1" as="geometry">
            <mxPoint x="224.5" y="410" as="sourcePoint" />
            <mxPoint x="224.5" y="460" as="targetPoint" />
            <Array as="points">
              <mxPoint x="225" y="430" />
              <mxPoint x="225" y="430" />
            </Array>
          </mxGeometry>
        </mxCell>
        <mxCell id="yUZSU2Zt3Uoy4D3P4V2n-19" value="" style="rounded=0;html=1;jettySize=auto;orthogonalLoop=1;fontSize=11;endArrow=block;endFill=0;endSize=8;strokeWidth=1;shadow=0;labelBackgroundColor=none;edgeStyle=orthogonalEdgeStyle;" edge="1" parent="yUZSU2Zt3Uoy4D3P4V2n-1">
          <mxGeometry relative="1" as="geometry">
            <mxPoint x="224.5" y="280" as="sourcePoint" />
            <mxPoint x="224.5" y="320" as="targetPoint" />
            <Array as="points">
              <mxPoint x="225" y="290" />
              <mxPoint x="225" y="290" />
            </Array>
          </mxGeometry>
        </mxCell>
        <mxCell id="yUZSU2Zt3Uoy4D3P4V2n-20" value="" style="rounded=0;html=1;jettySize=auto;orthogonalLoop=1;fontSize=11;endArrow=block;endFill=0;endSize=8;strokeWidth=1;shadow=0;labelBackgroundColor=none;edgeStyle=orthogonalEdgeStyle;" edge="1" parent="yUZSU2Zt3Uoy4D3P4V2n-1">
          <mxGeometry relative="1" as="geometry">
            <mxPoint x="224.5" y="510" as="sourcePoint" />
            <mxPoint x="224.5" y="560" as="targetPoint" />
            <Array as="points">
              <mxPoint x="225" y="530" />
              <mxPoint x="225" y="530" />
            </Array>
          </mxGeometry>
        </mxCell>
        <mxCell id="yUZSU2Zt3Uoy4D3P4V2n-21" value="" style="rounded=0;html=1;jettySize=auto;orthogonalLoop=1;fontSize=11;endArrow=block;endFill=0;endSize=8;strokeWidth=1;shadow=0;labelBackgroundColor=none;edgeStyle=orthogonalEdgeStyle;" edge="1" parent="yUZSU2Zt3Uoy4D3P4V2n-1">
          <mxGeometry relative="1" as="geometry">
            <mxPoint x="224.5" y="605" as="sourcePoint" />
            <mxPoint x="224.5" y="655" as="targetPoint" />
            <Array as="points">
              <mxPoint x="225" y="625" />
              <mxPoint x="225" y="625" />
            </Array>
          </mxGeometry>
        </mxCell>
        <mxCell id="yUZSU2Zt3Uoy4D3P4V2n-22" value="" style="rounded=0;html=1;jettySize=auto;orthogonalLoop=1;fontSize=11;endArrow=block;endFill=0;endSize=8;strokeWidth=1;shadow=0;labelBackgroundColor=none;edgeStyle=orthogonalEdgeStyle;" edge="1" parent="yUZSU2Zt3Uoy4D3P4V2n-1">
          <mxGeometry relative="1" as="geometry">
            <mxPoint x="224.5" y="750" as="sourcePoint" />
            <mxPoint x="224.5" y="800" as="targetPoint" />
            <Array as="points">
              <mxPoint x="225" y="770" />
              <mxPoint x="225" y="770" />
            </Array>
          </mxGeometry>
        </mxCell>
        <mxCell id="yUZSU2Zt3Uoy4D3P4V2n-23" value="" style="rounded=0;html=1;jettySize=auto;orthogonalLoop=1;fontSize=11;endArrow=block;endFill=0;endSize=8;strokeWidth=1;shadow=0;labelBackgroundColor=none;edgeStyle=orthogonalEdgeStyle;" edge="1" parent="yUZSU2Zt3Uoy4D3P4V2n-1">
          <mxGeometry relative="1" as="geometry">
            <mxPoint x="224.5" y="880" as="sourcePoint" />
            <mxPoint x="224.5" y="930" as="targetPoint" />
            <Array as="points">
              <mxPoint x="225" y="900" />
              <mxPoint x="225" y="900" />
            </Array>
          </mxGeometry>
        </mxCell>
        <mxCell id="yUZSU2Zt3Uoy4D3P4V2n-24" value="yes" style="edgeLabel;html=1;align=center;verticalAlign=middle;resizable=0;points=[];" vertex="1" connectable="0" parent="yUZSU2Zt3Uoy4D3P4V2n-23">
          <mxGeometry x="-0.24" y="2" relative="1" as="geometry">
            <mxPoint as="offset" />
          </mxGeometry>
        </mxCell>
        <mxCell id="yUZSU2Zt3Uoy4D3P4V2n-25" value="" style="rounded=0;html=1;jettySize=auto;orthogonalLoop=1;fontSize=11;endArrow=block;endFill=0;endSize=8;strokeWidth=1;shadow=0;labelBackgroundColor=none;edgeStyle=orthogonalEdgeStyle;" edge="1" parent="yUZSU2Zt3Uoy4D3P4V2n-1">
          <mxGeometry relative="1" as="geometry">
            <mxPoint x="224.5" y="980" as="sourcePoint" />
            <mxPoint x="224.5" y="1030" as="targetPoint" />
            <Array as="points">
              <mxPoint x="225" y="1000" />
              <mxPoint x="225" y="1000" />
            </Array>
          </mxGeometry>
        </mxCell>
        <mxCell id="yUZSU2Zt3Uoy4D3P4V2n-26" value="" style="rounded=0;html=1;jettySize=auto;orthogonalLoop=1;fontSize=11;endArrow=block;endFill=0;endSize=8;strokeWidth=1;shadow=0;labelBackgroundColor=none;edgeStyle=orthogonalEdgeStyle;" edge="1" parent="yUZSU2Zt3Uoy4D3P4V2n-1">
          <mxGeometry relative="1" as="geometry">
            <mxPoint x="224.5" y="1070" as="sourcePoint" />
            <mxPoint x="224.5" y="1120" as="targetPoint" />
            <Array as="points">
              <mxPoint x="225" y="1090" />
              <mxPoint x="225" y="1090" />
            </Array>
          </mxGeometry>
        </mxCell>
        <mxCell id="yUZSU2Zt3Uoy4D3P4V2n-27" value="" style="rounded=0;html=1;jettySize=auto;orthogonalLoop=1;fontSize=11;endArrow=block;endFill=0;endSize=8;strokeWidth=1;shadow=0;labelBackgroundColor=none;edgeStyle=orthogonalEdgeStyle;" edge="1" parent="yUZSU2Zt3Uoy4D3P4V2n-1">
          <mxGeometry relative="1" as="geometry">
            <mxPoint x="224.5" y="1210" as="sourcePoint" />
            <mxPoint x="224.5" y="1260" as="targetPoint" />
            <Array as="points">
              <mxPoint x="225" y="1230" />
              <mxPoint x="225" y="1230" />
            </Array>
          </mxGeometry>
        </mxCell>
        <mxCell id="yUZSU2Zt3Uoy4D3P4V2n-28" value="" style="endArrow=classic;html=1;rounded=0;" edge="1" parent="yUZSU2Zt3Uoy4D3P4V2n-1" source="yUZSU2Zt3Uoy4D3P4V2n-13">
          <mxGeometry width="50" height="50" relative="1" as="geometry">
            <mxPoint x="265" y="1220" as="sourcePoint" />
            <mxPoint x="430" y="1170" as="targetPoint" />
          </mxGeometry>
        </mxCell>
        <mxCell id="yUZSU2Zt3Uoy4D3P4V2n-29" value="" style="endArrow=none;html=1;rounded=0;" edge="1" parent="yUZSU2Zt3Uoy4D3P4V2n-1">
          <mxGeometry width="50" height="50" relative="1" as="geometry">
            <mxPoint x="520" y="1140" as="sourcePoint" />
            <mxPoint x="520" y="160" as="targetPoint" />
          </mxGeometry>
        </mxCell>
        <mxCell id="yUZSU2Zt3Uoy4D3P4V2n-30" value="" style="endArrow=classic;html=1;rounded=0;" edge="1" parent="yUZSU2Zt3Uoy4D3P4V2n-1">
          <mxGeometry width="50" height="50" relative="1" as="geometry">
            <mxPoint x="520" y="160" as="sourcePoint" />
            <mxPoint x="310" y="160" as="targetPoint" />
          </mxGeometry>
        </mxCell>
        <mxCell id="yUZSU2Zt3Uoy4D3P4V2n-31" value="stop" style="ellipse;whiteSpace=wrap;html=1;" vertex="1" parent="yUZSU2Zt3Uoy4D3P4V2n-1">
          <mxGeometry x="165" y="1460" width="120" height="60" as="geometry" />
        </mxCell>
        <mxCell id="yUZSU2Zt3Uoy4D3P4V2n-32" value="" style="endArrow=none;html=1;rounded=0;" edge="1" parent="yUZSU2Zt3Uoy4D3P4V2n-1">
          <mxGeometry width="50" height="50" relative="1" as="geometry">
            <mxPoint x="80" y="840" as="sourcePoint" />
            <mxPoint x="180" y="840" as="targetPoint" />
          </mxGeometry>
        </mxCell>
        <mxCell id="yUZSU2Zt3Uoy4D3P4V2n-33" value="" style="endArrow=none;html=1;rounded=0;" edge="1" parent="yUZSU2Zt3Uoy4D3P4V2n-1">
          <mxGeometry width="50" height="50" relative="1" as="geometry">
            <mxPoint x="80" y="1498" as="sourcePoint" />
            <mxPoint x="80" y="840" as="targetPoint" />
          </mxGeometry>
        </mxCell>
        <mxCell id="yUZSU2Zt3Uoy4D3P4V2n-34" value="no" style="edgeLabel;html=1;align=center;verticalAlign=middle;resizable=0;points=[];" vertex="1" connectable="0" parent="yUZSU2Zt3Uoy4D3P4V2n-33">
          <mxGeometry x="0.7325" y="2" relative="1" as="geometry">
            <mxPoint as="offset" />
          </mxGeometry>
        </mxCell>
        <mxCell id="yUZSU2Zt3Uoy4D3P4V2n-35" value="" style="endArrow=classic;html=1;rounded=0;" edge="1" parent="yUZSU2Zt3Uoy4D3P4V2n-1">
          <mxGeometry width="50" height="50" relative="1" as="geometry">
            <mxPoint x="80" y="1500" as="sourcePoint" />
            <mxPoint x="160" y="1500" as="targetPoint" />
          </mxGeometry>
        </mxCell>
      </root>
    </mxGraphModel>
  </diagram>
</mxfile>
